<svg xmlns="http://www.w3.org/2000/svg" width="114.527" height="30.947" viewBox="0 0 114.527 30.947"><path fill="#FFF" d="M114.527 10.371a1.7 1.7 0 0 1-1.701 1.701h-10.205v1.701h10.205a1.7 1.7 0 0 1 1.701 1.701v5.102a1.7 1.7 0 0 1-1.701 1.701H100.92a1.7 1.7 0 1 1 0-3.402h10.205v-1.701H100.92a1.7 1.7 0 0 1-1.701-1.701v-5.102a1.7 1.7 0 0 1 1.701-1.701h11.906a1.7 1.7 0 0 1 1.701 1.701zM80.512 8.67h11.906a1.7 1.7 0 0 1 1.701 1.701v10.205a1.7 1.7 0 1 1-3.402 0v-3.402h-8.504v3.402a1.7 1.7 0 1 1-3.402 0V10.371a1.7 1.7 0 0 1 1.701-1.701zm10.204 3.402h-8.504v1.701h8.504v-1.701zm-17.008-1.701a1.7 1.7 0 0 0-1.701-1.701H60.102a1.7 1.7 0 1 0 0 3.402h11.906a1.7 1.7 0 0 0 1.7-1.701zm-9.354 6.803h-4.252a1.7 1.7 0 1 1 0-3.402h4.252a1.7 1.7 0 1 1 0 3.402zm-4.252 5.103a1.7 1.7 0 1 1 0-3.402 1.702 1.702 0 0 1 0 3.402zm-22.11-11.906a1.7 1.7 0 0 0 1.701 1.701h10.205v1.701H39.693a1.7 1.7 0 0 0-1.701 1.701v5.102a1.7 1.7 0 0 0 1.701 1.701h11.906a1.7 1.7 0 1 0 0-3.402H41.393v-1.701h10.205a1.7 1.7 0 0 0 1.701-1.701v-5.102a1.7 1.7 0 0 0-1.701-1.701H39.693a1.7 1.7 0 0 0-1.701 1.701z"/><path fill="#ED1C24" d="M21.007 25.82l-7.184 4.837a1.7 1.7 0 0 1-1.887.009l-7.353-4.854A10.207 10.207 0 0 1 0 17.295V5.539a3.402 3.402 0 0 1 2.525-3.287L9.25.459a13.598 13.598 0 0 1 7.012 0l6.725 1.793a3.402 3.402 0 0 1 2.525 3.287v11.816c0 3.395-1.689 6.568-4.505 8.465z"/><path fill="#FFF" d="M18.709 10.371H6.803a1.7 1.7 0 1 1 0-3.402h11.906a1.702 1.702 0 0 1 0 3.402zm-5.953 3.402a1.7 1.7 0 0 0-1.701-1.701H6.803a1.7 1.7 0 1 0 0 3.402h4.252a1.702 1.702 0 0 0 1.701-1.701zm-4.252 5.102a1.7 1.7 0 1 0-3.402 0 1.702 1.702 0 0 0 3.402 0z"/></svg>