<svg xmlns="http://www.w3.org/2000/svg" width="117" height="32"><g fill="none"><path fill="#FFF" d="M2 5h20v18H2z"/><path fill="#000" d="M117 10.75c0 .926-.816 1.75-1.733 1.75h-10.4v1.75h10.4c.917 0 1.733.824 1.733 1.75v5.25c0 .926-.816 1.75-1.733 1.75h-12.134c-.917 0-1.733-.824-1.733-1.75s.816-1.75 1.733-1.75h10.4v-1.75h-10.4c-.917 0-1.733-.824-1.733-1.75v-5.25c0-.926.816-1.75 1.733-1.75h12.134c1.02 0 1.733.72 1.733 1.75zM82.333 9h12.134c.917 0 1.733.824 1.733 1.75v10.5c0 .926-.816 1.75-1.733 1.75-.918 0-1.734-.824-1.734-1.75v-3.5h-8.666v3.5c0 .926-.816 1.75-1.734 1.75-.917 0-1.733-.824-1.733-1.75v-10.5c0-1.03.816-1.75 1.733-1.75zm10.4 3.5h-8.666v1.75h8.666V12.5zM75.4 10.75c0-.926-.816-1.75-1.733-1.75H61.533c-.917 0-1.733.824-1.733 1.75s.816 1.75 1.733 1.75h12.134c.917 0 1.733-.824 1.733-1.75zm-9.482 7h-4.385c-.917 0-1.733-.824-1.733-1.75s.816-1.75 1.733-1.75h4.385c.917 0 1.733.824 1.733 1.75s-.816 1.75-1.733 1.75zM61.533 23c-.917 0-1.733-.824-1.733-1.75s.816-1.75 1.733-1.75c.918 0 1.734.824 1.734 1.75S62.45 23 61.533 23zM39 10.75c0 .926.816 1.75 1.733 1.75h10.4v1.75h-10.4c-.917 0-1.733.824-1.733 1.75v5.25c0 .926.816 1.75 1.733 1.75h12.134c.917 0 1.733-.824 1.733-1.75s-.816-1.75-1.733-1.75h-10.4v-1.75h10.4c.917 0 1.733-.824 1.733-1.75v-5.25c0-.926-.816-1.75-1.733-1.75H40.733C39.816 9 39 9.72 39 10.75z"/><path fill="#ED1C24" d="M23.36 2.326L16.554.466a13.812 13.812 0 00-7.11 0L2.54 2.325C1.016 2.636 0 4.084 0 5.635v12.2c0 3.516 1.727 6.824 4.672 8.789l7.516 5.066c.609.413 1.32.413 1.93 0l7.312-4.963c2.843-1.964 4.57-5.273 4.57-8.788V5.635c-.102-1.551-1.117-2.998-2.64-3.309zM6.905 21.247c-.914 0-1.726-.827-1.726-1.758 0-.93.812-1.757 1.726-1.757.914 0 1.727.827 1.727 1.757 0 .931-.813 1.758-1.727 1.758zm4.367-5.273H6.906c-.914 0-1.726-.827-1.726-1.758 0-.93.812-1.757 1.726-1.757h4.367c.915 0 1.727.827 1.727 1.757 0 .931-.813 1.758-1.727 1.758zm7.72-5.273H6.905c-.914 0-1.726-.827-1.726-1.758 0-1.033.812-1.757 1.726-1.757h12.086c.914 0 1.727.827 1.727 1.757 0 .931-.813 1.758-1.727 1.758z"/></g></svg>